<?xml version="1.0" encoding="UTF-8"?>
<!DOCTYPE svg PUBLIC "-//W3C//DTD SVG 1.1//EN" "http://www.w3.org/Graphics/SVG/1.1/DTD/svg11.dtd">
<svg version="1.2" width="100.01mm" height="100.01mm" viewBox="1000 1000 10001 10001" preserveAspectRatio="xMidYMid" fill-rule="evenodd" stroke-width="28.222" stroke-linejoin="round" xmlns="http://www.w3.org/2000/svg" xmlns:ooo="http://xml.openoffice.org/svg/export" xmlns:xlink="http://www.w3.org/1999/xlink" xmlns:presentation="http://sun.com/xmlns/staroffice/presentation" xmlns:smil="http://www.w3.org/2001/SMIL20/" xmlns:anim="urn:oasis:names:tc:opendocument:xmlns:animation:1.0" xml:space="preserve">
 <defs class="EmbeddedBulletChars">
  <g id="bullet-char-template-57356" transform="scale(0.00048828125,-0.00048828125)">
   <path d="M 580,1141 L 1163,571 580,0 -4,571 580,1141 Z"/>
  </g>
  <g id="bullet-char-template-57354" transform="scale(0.00048828125,-0.00048828125)">
   <path d="M 8,1128 L 1137,1128 1137,0 8,0 8,1128 Z"/>
  </g>
  <g id="bullet-char-template-10146" transform="scale(0.00048828125,-0.00048828125)">
   <path d="M 174,0 L 602,739 174,1481 1456,739 174,0 Z M 1358,739 L 309,1346 659,739 1358,739 Z"/>
  </g>
  <g id="bullet-char-template-10132" transform="scale(0.00048828125,-0.00048828125)">
   <path d="M 2015,739 L 1276,0 717,0 1260,543 174,543 174,936 1260,936 717,1481 1274,1481 2015,739 Z"/>
  </g>
  <g id="bullet-char-template-10007" transform="scale(0.00048828125,-0.00048828125)">
   <path d="M 0,-2 C -7,14 -16,27 -25,37 L 356,567 C 262,823 215,952 215,954 215,979 228,992 255,992 264,992 276,990 289,987 310,991 331,999 354,1012 L 381,999 492,748 772,1049 836,1024 860,1049 C 881,1039 901,1025 922,1006 886,937 835,863 770,784 769,783 710,716 594,584 L 774,223 C 774,196 753,168 711,139 L 727,119 C 717,90 699,76 672,76 641,76 570,178 457,381 L 164,-76 C 142,-110 111,-127 72,-127 30,-127 9,-110 8,-76 1,-67 -2,-52 -2,-32 -2,-23 -1,-13 0,-2 Z"/>
  </g>
  <g id="bullet-char-template-10004" transform="scale(0.00048828125,-0.00048828125)">
   <path d="M 285,-33 C 182,-33 111,30 74,156 52,228 41,333 41,471 41,549 55,616 82,672 116,743 169,778 240,778 293,778 328,747 346,684 L 369,508 C 377,444 397,411 428,410 L 1163,1116 C 1174,1127 1196,1133 1229,1133 1271,1133 1292,1118 1292,1087 L 1292,965 C 1292,929 1282,901 1262,881 L 442,47 C 390,-6 338,-33 285,-33 Z"/>
  </g>
  <g id="bullet-char-template-9679" transform="scale(0.00048828125,-0.00048828125)">
   <path d="M 813,0 C 632,0 489,54 383,161 276,268 223,411 223,592 223,773 276,916 383,1023 489,1130 632,1184 813,1184 992,1184 1136,1130 1245,1023 1353,916 1407,772 1407,592 1407,412 1353,268 1245,161 1136,54 992,0 813,0 Z"/>
  </g>
  <g id="bullet-char-template-8226" transform="scale(0.00048828125,-0.00048828125)">
   <path d="M 346,457 C 273,457 209,483 155,535 101,586 74,649 74,723 74,796 101,859 155,911 209,963 273,989 346,989 419,989 480,963 531,910 582,859 608,796 608,723 608,648 583,586 532,535 482,483 420,457 346,457 Z"/>
  </g>
  <g id="bullet-char-template-8211" transform="scale(0.00048828125,-0.00048828125)">
   <path d="M -4,459 L 1135,459 1135,606 -4,606 -4,459 Z"/>
  </g>
  <g id="bullet-char-template-61548" transform="scale(0.00048828125,-0.00048828125)">
   <path d="M 173,740 C 173,903 231,1043 346,1159 462,1274 601,1332 765,1332 928,1332 1067,1274 1183,1159 1299,1043 1357,903 1357,740 1357,577 1299,437 1183,322 1067,206 928,148 765,148 601,148 462,206 346,322 231,437 173,577 173,740 Z"/>
  </g>
 </defs>
 <g class="Page">
  <g class="com.sun.star.drawing.PolyPolygonShape">
   <g id="id3">
    <rect class="BoundingBox" stroke="none" fill="none" x="3899" y="7049" width="2034" height="1742"/>
    <path fill="rgb(0,0,0)" stroke="none" d="M 5431,8789 L 5400,7800 5399,7763 5396,7730 5392,7700 5386,7673 5377,7649 5367,7628 5355,7609 5341,7594 5324,7580 5306,7570 5286,7561 5263,7555 5238,7551 5211,7549 5182,7549 5150,7550 3900,7550 3900,7050 5400,7050 5491,7052 5535,7054 5577,7060 5617,7068 5656,7080 5692,7096 5726,7117 5758,7144 5787,7178 5814,7218 5838,7266 5858,7323 5876,7389 5890,7464 5900,7550 5931,8789 5431,8789 Z"/>
    <path fill="none" stroke="rgb(255,255,255)" d="M 5431,8789 L 5400,7800 5399,7763 5396,7730 5392,7700 5386,7673 5377,7649 5367,7628 5355,7609 5341,7594 5324,7580 5306,7570 5286,7561 5263,7555 5238,7551 5211,7549 5182,7549 5150,7550 3900,7550 3900,7050 5400,7050 5491,7052 5535,7054 5577,7060 5617,7068 5656,7080 5692,7096 5726,7117 5758,7144 5787,7178 5814,7218 5838,7266 5858,7323 5876,7389 5890,7464 5900,7550 5931,8789 5431,8789 Z"/>
   </g>
  </g>
  <g class="com.sun.star.drawing.PolyPolygonShape">
   <g id="id4">
    <rect class="BoundingBox" stroke="none" fill="none" x="1209" y="8259" width="3083" height="2333"/>
    <g>
     <defs>
      <linearGradient id="gradient1" x1="1250" y1="9425" x2="4250" y2="9425" gradientUnits="userSpaceOnUse">
       <stop offset="0" style="stop-color:rgb(238,238,238)"/>
       <stop offset="1" style="stop-color:rgb(102,102,102)"/>
      </linearGradient>
     </defs>
     <path style="fill:url(#gradient1)" d="M 2750,8300 L 2598,8302 2450,8309 2307,8321 2170,8337 2039,8356 1916,8380 1800,8406 1693,8436 1596,8469 1509,8505 1433,8543 1369,8583 1318,8625 1281,8669 1258,8714 1250,8761 1250,10089 1258,10136 1281,10181 1318,10225 1369,10267 1433,10307 1509,10345 1596,10381 1693,10414 1800,10444 1916,10470 2039,10494 2170,10513 2307,10529 2450,10540 2598,10548 2750,10550 2901,10548 3049,10540 3192,10529 3329,10513 3460,10494 3584,10470 3699,10444 3806,10414 3904,10381 3991,10345 4067,10307 4131,10267 4182,10225 4219,10181 4242,10136 4250,10089 4250,8761 4242,8714 4219,8669 4182,8625 4131,8583 4067,8543 3991,8505 3904,8469 3806,8436 3699,8406 3584,8380 3460,8356 3329,8337 3192,8321 3049,8309 2901,8302 2750,8300 Z"/>
    </g>
    <path fill="none" stroke="rgb(0,0,0)" stroke-width="81" stroke-linejoin="round" d="M 2750,8300 L 2598,8302 2450,8309 2307,8321 2170,8337 2039,8356 1916,8380 1800,8406 1693,8436 1596,8469 1509,8505 1433,8543 1369,8583 1318,8625 1281,8669 1258,8714 1250,8761 1250,10089 1258,10136 1281,10181 1318,10225 1369,10267 1433,10307 1509,10345 1596,10381 1693,10414 1800,10444 1916,10470 2039,10494 2170,10513 2307,10529 2450,10540 2598,10548 2750,10550 2901,10548 3049,10540 3192,10529 3329,10513 3460,10494 3584,10470 3699,10444 3806,10414 3904,10381 3991,10345 4067,10307 4131,10267 4182,10225 4219,10181 4242,10136 4250,10089 4250,8761 4242,8714 4219,8669 4182,8625 4131,8583 4067,8543 3991,8505 3904,8469 3806,8436 3699,8406 3584,8380 3460,8356 3329,8337 3192,8321 3049,8309 2901,8302 2750,8300 Z"/>
   </g>
  </g>
  <g class="com.sun.star.drawing.PolyPolygonShape">
   <g id="id5">
    <rect class="BoundingBox" stroke="none" fill="none" x="1208" y="6609" width="3083" height="2333"/>
    <g>
     <defs>
      <linearGradient id="gradient2" x1="1249" y1="7775" x2="4249" y2="7775" gradientUnits="userSpaceOnUse">
       <stop offset="0" style="stop-color:rgb(238,238,238)"/>
       <stop offset="1" style="stop-color:rgb(102,102,102)"/>
      </linearGradient>
     </defs>
     <path style="fill:url(#gradient2)" d="M 2748,6650 L 2597,6652 2449,6659 2306,6671 2169,6687 2038,6706 1915,6730 1799,6756 1692,6786 1595,6819 1508,6855 1432,6893 1368,6933 1317,6975 1280,7019 1257,7064 1249,7111 1249,8439 1257,8486 1280,8531 1317,8575 1368,8617 1432,8657 1508,8695 1595,8731 1692,8764 1799,8794 1915,8820 2038,8844 2169,8863 2306,8879 2449,8890 2597,8898 2748,8900 2900,8898 3048,8890 3191,8879 3328,8863 3459,8844 3583,8820 3698,8794 3805,8764 3903,8731 3990,8695 4066,8657 4129,8617 4181,8575 4218,8531 4241,8486 4249,8439 4249,7111 4241,7064 4218,7019 4181,6975 4129,6933 4066,6893 3990,6855 3903,6819 3805,6786 3698,6756 3583,6730 3459,6706 3328,6687 3191,6671 3048,6659 2900,6652 2748,6650 Z"/>
    </g>
    <path fill="none" stroke="rgb(0,0,0)" stroke-width="81" stroke-linejoin="round" d="M 2748,6650 L 2597,6652 2449,6659 2306,6671 2169,6687 2038,6706 1915,6730 1799,6756 1692,6786 1595,6819 1508,6855 1432,6893 1368,6933 1317,6975 1280,7019 1257,7064 1249,7111 1249,8439 1257,8486 1280,8531 1317,8575 1368,8617 1432,8657 1508,8695 1595,8731 1692,8764 1799,8794 1915,8820 2038,8844 2169,8863 2306,8879 2449,8890 2597,8898 2748,8900 2900,8898 3048,8890 3191,8879 3328,8863 3459,8844 3583,8820 3698,8794 3805,8764 3903,8731 3990,8695 4066,8657 4129,8617 4181,8575 4218,8531 4241,8486 4249,8439 4249,7111 4241,7064 4218,7019 4181,6975 4129,6933 4066,6893 3990,6855 3903,6819 3805,6786 3698,6756 3583,6730 3459,6706 3328,6687 3191,6671 3048,6659 2900,6652 2748,6650 Z"/>
   </g>
  </g>
  <g class="com.sun.star.drawing.CustomShape">
   <g id="id6">
    <rect class="BoundingBox" stroke="none" fill="none" x="1000" y="1000" width="10001" height="10001"/>
   </g>
  </g>
  <g class="com.sun.star.drawing.ClosedBezierShape">
   <g id="id7">
    <rect class="BoundingBox" stroke="none" fill="none" x="6929" y="6550" width="1537" height="1350"/>
    <path fill="rgb(102,102,102)" stroke="none" d="M 8465,7399 L 7715,7399 C 7510,7399 7453,7324 7465,7149 L 7429,6550 6929,6550 6965,7399 C 6965,7649 6978,7853 7465,7899 L 8465,7899 8465,7399 Z"/>
   </g>
  </g>
  <g class="com.sun.star.drawing.CustomShape">
   <g id="id8">
    <rect class="BoundingBox" stroke="none" fill="none" x="3649" y="5549" width="2603" height="503"/>
    <path fill="rgb(0,0,0)" stroke="none" d="M 4950,6050 L 3650,6050 3650,5550 6250,5550 6250,6050 4950,6050 Z"/>
    <path fill="none" stroke="rgb(255,255,255)" d="M 4950,6050 L 3650,6050 3650,5550 6250,5550 6250,6050 4950,6050 Z"/>
   </g>
  </g>
  <g class="com.sun.star.drawing.CustomShape">
   <g id="id9">
    <rect class="BoundingBox" stroke="none" fill="none" x="6097" y="4997" width="2108" height="1608"/>
    <g>
     <defs>
      <linearGradient id="gradient3" x1="6575" y1="4804" x2="7726" y2="6797" gradientUnits="userSpaceOnUse">
       <stop offset="0" style="stop-color:rgb(255,215,215)"/>
       <stop offset="1" style="stop-color:rgb(255,64,0)"/>
      </linearGradient>
     </defs>
     <path style="fill:url(#gradient3)" d="M 6400,5050 L 6400,5050 6384,5051 6367,5052 6351,5055 6335,5059 6320,5063 6304,5069 6290,5076 6275,5084 6261,5092 6248,5102 6235,5112 6223,5123 6212,5135 6202,5148 6192,5161 6184,5175 6176,5190 6169,5204 6163,5220 6159,5235 6155,5251 6152,5267 6151,5284 6150,5300 6150,6300 6150,6301 6151,6317 6152,6334 6155,6350 6159,6366 6163,6381 6169,6397 6176,6411 6184,6426 6192,6440 6202,6453 6212,6466 6223,6478 6235,6489 6248,6499 6261,6509 6275,6517 6290,6525 6304,6532 6320,6538 6335,6542 6351,6546 6367,6549 6384,6550 6400,6551 7900,6551 7901,6551 7917,6550 7934,6549 7950,6546 7966,6542 7981,6538 7997,6532 8011,6525 8026,6517 8040,6509 8053,6499 8066,6489 8078,6478 8089,6466 8099,6453 8109,6440 8117,6426 8125,6411 8132,6397 8138,6381 8142,6366 8146,6350 8149,6334 8150,6317 8151,6301 8151,5300 8151,5300 8151,5300 8150,5284 8149,5267 8146,5251 8142,5235 8138,5220 8132,5204 8125,5190 8117,5175 8109,5161 8099,5148 8089,5135 8078,5123 8066,5112 8053,5102 8040,5092 8026,5084 8011,5076 7997,5069 7981,5063 7966,5059 7950,5055 7934,5052 7917,5051 7901,5050 6400,5050 Z"/>
    </g>
    <path fill="none" stroke="rgb(42,96,153)" stroke-width="106" stroke-linejoin="round" d="M 6400,5050 L 6400,5050 C 6356,5050 6313,5062 6275,5084 6237,5105 6205,5137 6184,5175 6162,5213 6150,5256 6150,5300 L 6150,6300 6150,6301 C 6150,6345 6162,6388 6184,6426 6205,6464 6237,6496 6275,6517 6313,6539 6356,6551 6400,6551 L 7900,6551 7901,6551 C 7945,6551 7988,6539 8026,6517 8064,6496 8096,6464 8117,6426 8139,6388 8151,6345 8151,6301 L 8151,5300 8151,5300 8151,5300 C 8151,5256 8139,5213 8117,5175 8096,5137 8064,5105 8026,5084 7988,5062 7945,5050 7901,5050 L 6400,5050 Z"/>
   </g>
  </g>
  <g class="com.sun.star.drawing.CustomShape">
   <g id="id10">
    <rect class="BoundingBox" stroke="none" fill="none" x="8412" y="6846" width="2108" height="1608"/>
    <g>
     <defs>
      <linearGradient id="gradient4" x1="8890" y1="6653" x2="10041" y2="8646" gradientUnits="userSpaceOnUse">
       <stop offset="0" style="stop-color:rgb(255,255,166)"/>
       <stop offset="1" style="stop-color:rgb(255,128,0)"/>
      </linearGradient>
     </defs>
     <path style="fill:url(#gradient4)" d="M 8715,6899 L 8715,6899 8699,6900 8682,6901 8666,6904 8650,6908 8635,6912 8619,6918 8605,6925 8590,6933 8576,6941 8563,6951 8550,6961 8538,6972 8527,6984 8517,6997 8507,7010 8499,7024 8491,7039 8484,7053 8478,7069 8474,7084 8470,7100 8467,7116 8466,7133 8465,7149 8465,8149 8465,8150 8466,8166 8467,8183 8470,8199 8474,8215 8478,8230 8484,8246 8491,8260 8499,8275 8507,8289 8517,8302 8527,8315 8538,8327 8550,8338 8563,8348 8576,8358 8590,8366 8605,8374 8619,8381 8635,8387 8650,8391 8666,8395 8682,8398 8699,8399 8715,8400 10215,8400 10216,8400 10232,8399 10249,8398 10265,8395 10281,8391 10296,8387 10312,8381 10326,8374 10341,8366 10355,8358 10368,8348 10381,8338 10393,8327 10404,8315 10414,8302 10424,8289 10432,8275 10440,8260 10447,8246 10453,8230 10457,8215 10461,8199 10464,8183 10465,8166 10466,8150 10466,7149 10466,7149 10466,7149 10465,7133 10464,7116 10461,7100 10457,7084 10453,7069 10447,7053 10440,7039 10432,7024 10424,7010 10414,6997 10404,6984 10393,6972 10381,6961 10368,6951 10355,6941 10341,6933 10326,6925 10312,6918 10296,6912 10281,6908 10265,6904 10249,6901 10232,6900 10216,6899 8715,6899 Z"/>
    </g>
    <path fill="none" stroke="rgb(42,96,153)" stroke-width="106" stroke-linejoin="round" d="M 8715,6899 L 8715,6899 C 8671,6899 8628,6911 8590,6933 8552,6954 8520,6986 8499,7024 8477,7062 8465,7105 8465,7149 L 8465,8149 8465,8150 C 8465,8194 8477,8237 8499,8275 8520,8313 8552,8345 8590,8366 8628,8388 8671,8400 8715,8400 L 10215,8400 10216,8400 C 10260,8400 10303,8388 10341,8366 10379,8345 10411,8313 10432,8275 10454,8237 10466,8194 10466,8150 L 10466,7149 10466,7149 10466,7149 C 10466,7105 10454,7062 10432,7024 10411,6986 10379,6954 10341,6933 10303,6911 10260,6899 10216,6899 L 8715,6899 Z"/>
   </g>
  </g>
  <g class="com.sun.star.drawing.CustomShape">
   <g id="id11">
    <rect class="BoundingBox" stroke="none" fill="none" x="4597" y="8597" width="2108" height="1608"/>
    <g>
     <defs>
      <linearGradient id="gradient5" x1="5075" y1="8404" x2="6226" y2="10397" gradientUnits="userSpaceOnUse">
       <stop offset="0" style="stop-color:rgb(221,232,203)"/>
       <stop offset="1" style="stop-color:rgb(21,132,102)"/>
      </linearGradient>
     </defs>
     <path style="fill:url(#gradient5)" d="M 4900,8650 L 4900,8650 4884,8651 4867,8652 4851,8655 4835,8659 4820,8663 4804,8669 4790,8676 4775,8684 4761,8692 4748,8702 4735,8712 4723,8723 4712,8735 4702,8748 4692,8761 4684,8775 4676,8790 4669,8804 4663,8820 4659,8835 4655,8851 4652,8867 4651,8884 4650,8900 4650,9900 4650,9901 4651,9917 4652,9934 4655,9950 4659,9966 4663,9981 4669,9997 4676,10011 4684,10026 4692,10040 4702,10053 4712,10066 4723,10078 4735,10089 4748,10099 4761,10109 4775,10117 4790,10125 4804,10132 4820,10138 4835,10142 4851,10146 4867,10149 4884,10150 4900,10151 6400,10151 6401,10151 6417,10150 6434,10149 6450,10146 6466,10142 6481,10138 6497,10132 6511,10125 6526,10117 6540,10109 6553,10099 6566,10089 6578,10078 6589,10066 6599,10053 6609,10040 6617,10026 6625,10011 6632,9997 6638,9981 6642,9966 6646,9950 6649,9934 6650,9917 6651,9901 6651,8900 6651,8900 6651,8900 6650,8884 6649,8867 6646,8851 6642,8835 6638,8820 6632,8804 6625,8790 6617,8775 6609,8761 6599,8748 6589,8735 6578,8723 6566,8712 6553,8702 6540,8692 6526,8684 6511,8676 6497,8669 6481,8663 6466,8659 6450,8655 6434,8652 6417,8651 6401,8650 4900,8650 Z"/>
    </g>
    <path fill="none" stroke="rgb(42,96,153)" stroke-width="106" stroke-linejoin="round" d="M 4900,8650 L 4900,8650 C 4856,8650 4813,8662 4775,8684 4737,8705 4705,8737 4684,8775 4662,8813 4650,8856 4650,8900 L 4650,9900 4650,9901 C 4650,9945 4662,9988 4684,10026 4705,10064 4737,10096 4775,10117 4813,10139 4856,10151 4900,10151 L 6400,10151 6401,10151 C 6445,10151 6488,10139 6526,10117 6564,10096 6596,10064 6617,10026 6639,9988 6651,9945 6651,9901 L 6651,8900 6651,8900 6651,8900 C 6651,8856 6639,8813 6617,8775 6596,8737 6564,8705 6526,8684 6488,8662 6445,8650 6401,8650 L 4900,8650 Z"/>
   </g>
  </g>
  <g class="com.sun.star.drawing.PolyPolygonShape">
   <g id="id12">
    <rect class="BoundingBox" stroke="none" fill="none" x="1209" y="5009" width="3083" height="2333"/>
    <g>
     <defs>
      <linearGradient id="gradient6" x1="1250" y1="6175" x2="4250" y2="6175" gradientUnits="userSpaceOnUse">
       <stop offset="0" style="stop-color:rgb(238,238,238)"/>
       <stop offset="1" style="stop-color:rgb(102,102,102)"/>
      </linearGradient>
     </defs>
     <path style="fill:url(#gradient6)" d="M 2750,5050 L 2598,5052 2450,5059 2307,5071 2170,5087 2039,5106 1916,5130 1800,5156 1693,5186 1596,5219 1509,5255 1433,5293 1369,5333 1318,5375 1281,5419 1258,5464 1250,5511 1250,6839 1258,6886 1281,6931 1318,6975 1369,7017 1433,7057 1509,7095 1596,7131 1693,7164 1800,7194 1916,7220 2039,7244 2170,7263 2307,7279 2450,7290 2598,7298 2750,7300 2901,7298 3049,7290 3192,7279 3329,7263 3460,7244 3584,7220 3699,7194 3806,7164 3904,7131 3991,7095 4067,7057 4131,7017 4182,6975 4219,6931 4242,6886 4250,6839 4250,5511 4242,5464 4219,5419 4182,5375 4131,5333 4067,5293 3991,5255 3904,5219 3806,5186 3699,5156 3584,5130 3460,5106 3329,5087 3192,5071 3049,5059 2901,5052 2750,5050 Z"/>
    </g>
    <path fill="none" stroke="rgb(0,0,0)" stroke-width="81" stroke-linejoin="round" d="M 2750,5050 L 2598,5052 2450,5059 2307,5071 2170,5087 2039,5106 1916,5130 1800,5156 1693,5186 1596,5219 1509,5255 1433,5293 1369,5333 1318,5375 1281,5419 1258,5464 1250,5511 1250,6839 1258,6886 1281,6931 1318,6975 1369,7017 1433,7057 1509,7095 1596,7131 1693,7164 1800,7194 1916,7220 2039,7244 2170,7263 2307,7279 2450,7290 2598,7298 2750,7300 2901,7298 3049,7290 3192,7279 3329,7263 3460,7244 3584,7220 3699,7194 3806,7164 3904,7131 3991,7095 4067,7057 4131,7017 4182,6975 4219,6931 4242,6886 4250,6839 4250,5511 4242,5464 4219,5419 4182,5375 4131,5333 4067,5293 3991,5255 3904,5219 3806,5186 3699,5156 3584,5130 3460,5106 3329,5087 3192,5071 3049,5059 2901,5052 2750,5050 Z"/>
   </g>
  </g>
  <g class="com.sun.star.drawing.PolyPolygonShape">
   <g id="id13">
    <rect class="BoundingBox" stroke="none" fill="none" x="1209" y="5009" width="3083" height="1005"/>
    <path fill="rgb(178,178,178)" stroke="none" d="M 2750,5050 L 2598,5052 2450,5059 2307,5071 2170,5087 2039,5106 1916,5130 1800,5156 1693,5186 1596,5219 1509,5255 1433,5293 1369,5333 1318,5375 1281,5419 1258,5464 1250,5511 1258,5557 1281,5603 1318,5647 1369,5689 1433,5729 1509,5767 1596,5803 1693,5835 1800,5865 1916,5892 2039,5915 2170,5935 2307,5951 2450,5962 2598,5969 2750,5972 2901,5969 3049,5962 3192,5951 3329,5935 3460,5915 3584,5892 3699,5865 3806,5835 3904,5803 3991,5767 4067,5729 4131,5689 4182,5647 4219,5603 4242,5557 4250,5511 4242,5464 4219,5419 4182,5375 4131,5333 4067,5293 3991,5255 3904,5219 3806,5186 3699,5156 3584,5130 3460,5106 3329,5087 3192,5071 3049,5059 2901,5052 2750,5050 Z"/>
    <path fill="none" stroke="rgb(0,0,0)" stroke-width="81" stroke-linejoin="round" d="M 2750,5050 L 2598,5052 2450,5059 2307,5071 2170,5087 2039,5106 1916,5130 1800,5156 1693,5186 1596,5219 1509,5255 1433,5293 1369,5333 1318,5375 1281,5419 1258,5464 1250,5511 1258,5557 1281,5603 1318,5647 1369,5689 1433,5729 1509,5767 1596,5803 1693,5835 1800,5865 1916,5892 2039,5915 2170,5935 2307,5951 2450,5962 2598,5969 2750,5972 2901,5969 3049,5962 3192,5951 3329,5935 3460,5915 3584,5892 3699,5865 3806,5835 3904,5803 3991,5767 4067,5729 4131,5689 4182,5647 4219,5603 4242,5557 4250,5511 4242,5464 4219,5419 4182,5375 4131,5333 4067,5293 3991,5255 3904,5219 3806,5186 3699,5156 3584,5130 3460,5106 3329,5087 3192,5071 3049,5059 2901,5052 2750,5050 Z"/>
   </g>
  </g>
  <g class="com.sun.star.drawing.CustomShape">
   <g id="id14">
    <rect class="BoundingBox" stroke="none" fill="none" x="5843" y="1511" width="1259" height="1991"/>
    <path fill="rgb(42,96,153)" stroke="none" d="M 5844,3500 L 5906,3499 5969,3495 6031,3490 6093,3481 6154,3470 6214,3457 6273,3441 6331,3423 6388,3403 6444,3381 6498,3356 6551,3329 6602,3300 6651,3269 6698,3236 6743,3202 6785,3165 6826,3127 6864,3088 6899,3047 6932,3004 6962,2961 6989,2916 7013,2870 7035,2824 7053,2776 7068,2728 7081,2679 7090,2630 7096,2581 7100,2531 7100,2481 7096,2431 7090,2382 7081,2333 7068,2284 7053,2236 7035,2188 7013,2142 6989,2096 6962,2051 6932,2008 6899,1965 6864,1924 6826,1885 6785,1847 6743,1810 6698,1776 6651,1743 6602,1712 6551,1683 6498,1656 6444,1631 6388,1609 6331,1589 6273,1571 6214,1555 6154,1542 6093,1531 6031,1522 5969,1517 5907,1513 5844,1512 5847,2072 5875,2072 5902,2074 5929,2077 5956,2080 5982,2085 6009,2091 6034,2098 6060,2105 6085,2114 6109,2124 6133,2135 6156,2147 6178,2159 6199,2173 6220,2187 6239,2202 6258,2218 6275,2234 6292,2252 6307,2269 6322,2288 6335,2307 6346,2326 6357,2346 6366,2367 6375,2387 6381,2408 6387,2430 6391,2451 6393,2473 6395,2494 6395,2516 6393,2537 6391,2559 6387,2580 6381,2602 6375,2623 6366,2643 6357,2664 6346,2684 6335,2703 6322,2722 6307,2741 6292,2758 6275,2776 6258,2792 6239,2808 6220,2823 6199,2837 6178,2851 6156,2863 6133,2875 6109,2886 6085,2896 6060,2905 6034,2912 6009,2919 5982,2925 5956,2930 5929,2933 5902,2936 5875,2938 5847,2938 5844,3500 Z"/>
    <path fill="none" stroke="rgb(255,255,255)" d="M 5844,3500 L 5906,3499 5969,3495 6031,3490 6093,3481 6154,3470 6214,3457 6273,3441 6331,3423 6388,3403 6444,3381 6498,3356 6551,3329 6602,3300 6651,3269 6698,3236 6743,3202 6785,3165 6826,3127 6864,3088 6899,3047 6932,3004 6962,2961 6989,2916 7013,2870 7035,2824 7053,2776 7068,2728 7081,2679 7090,2630 7096,2581 7100,2531 7100,2481 7096,2431 7090,2382 7081,2333 7068,2284 7053,2236 7035,2188 7013,2142 6989,2096 6962,2051 6932,2008 6899,1965 6864,1924 6826,1885 6785,1847 6743,1810 6698,1776 6651,1743 6602,1712 6551,1683 6498,1656 6444,1631 6388,1609 6331,1589 6273,1571 6214,1555 6154,1542 6093,1531 6031,1522 5969,1517 5907,1513 5844,1512 5847,2072 5875,2072 5902,2074 5929,2077 5956,2080 5982,2085 6009,2091 6034,2098 6060,2105 6085,2114 6109,2124 6133,2135 6156,2147 6178,2159 6199,2173 6220,2187 6239,2202 6258,2218 6275,2234 6292,2252 6307,2269 6322,2288 6335,2307 6346,2326 6357,2346 6366,2367 6375,2387 6381,2408 6387,2430 6391,2451 6393,2473 6395,2494 6395,2516 6393,2537 6391,2559 6387,2580 6381,2602 6375,2623 6366,2643 6357,2664 6346,2684 6335,2703 6322,2722 6307,2741 6292,2758 6275,2776 6258,2792 6239,2808 6220,2823 6199,2837 6178,2851 6156,2863 6133,2875 6109,2886 6085,2896 6060,2905 6034,2912 6009,2919 5982,2925 5956,2930 5929,2933 5902,2936 5875,2938 5847,2938 5844,3500 Z"/>
   </g>
  </g>
  <g class="com.sun.star.drawing.CustomShape">
   <g id="id15">
    <rect class="BoundingBox" stroke="none" fill="none" x="4849" y="1512" width="903" height="3003"/>
    <path fill="rgb(42,96,153)" stroke="none" d="M 4850,3013 L 4850,1513 5750,1513 5750,4513 4850,4513 4850,3013 Z"/>
    <path fill="none" stroke="rgb(255,255,255)" d="M 4850,3013 L 4850,1513 5750,1513 5750,4513 4850,4513 4850,3013 Z"/>
   </g>
  </g>
  <g class="com.sun.star.drawing.CustomShape">
   <g id="id16">
    <rect class="BoundingBox" stroke="none" fill="none" x="5847" y="2499" width="1372" height="2003"/>
    <path fill="rgb(42,96,153)" stroke="none" d="M 5858,4500 L 5927,4498 5996,4494 6064,4487 6132,4477 6200,4466 6266,4451 6331,4435 6395,4416 6458,4394 6519,4370 6578,4345 6636,4317 6691,4287 6744,4255 6795,4221 6844,4185 6890,4147 6933,4108 6974,4068 7012,4025 7047,3982 7079,3937 7107,3892 7133,3845 7155,3797 7174,3749 7189,3700 7201,3650 7210,3600 7215,3550 7217,3500 7215,3450 7210,3400 7201,3350 7189,3300 7174,3251 7155,3203 7133,3155 7107,3108 7079,3063 7047,3018 7012,2975 6974,2932 6933,2892 6890,2853 6844,2815 6795,2779 6744,2745 6691,2713 6636,2683 6578,2655 6519,2630 6458,2606 6395,2584 6331,2565 6266,2549 6200,2534 6132,2523 6064,2513 5996,2506 5927,2502 5858,2500 5848,3152 5872,3153 5896,3154 5919,3157 5943,3160 5966,3164 5989,3169 6012,3175 6034,3181 6056,3189 6077,3197 6098,3206 6118,3216 6137,3226 6156,3237 6173,3249 6190,3262 6206,3275 6221,3288 6236,3302 6249,3317 6261,3332 6272,3348 6282,3364 6291,3380 6298,3397 6305,3413 6310,3430 6315,3448 6318,3465 6319,3483 6320,3500 6319,3517 6318,3535 6315,3552 6310,3570 6305,3587 6298,3603 6291,3620 6282,3636 6272,3652 6261,3668 6249,3683 6236,3698 6221,3712 6206,3725 6190,3738 6173,3751 6156,3763 6137,3774 6118,3784 6098,3794 6077,3803 6056,3811 6034,3819 6012,3825 5989,3831 5966,3836 5943,3840 5919,3843 5896,3846 5872,3847 5848,3848 5858,4500 Z"/>
    <path fill="none" stroke="rgb(255,255,255)" d="M 5858,4500 L 5927,4498 5996,4494 6064,4487 6132,4477 6200,4466 6266,4451 6331,4435 6395,4416 6458,4394 6519,4370 6578,4345 6636,4317 6691,4287 6744,4255 6795,4221 6844,4185 6890,4147 6933,4108 6974,4068 7012,4025 7047,3982 7079,3937 7107,3892 7133,3845 7155,3797 7174,3749 7189,3700 7201,3650 7210,3600 7215,3550 7217,3500 7215,3450 7210,3400 7201,3350 7189,3300 7174,3251 7155,3203 7133,3155 7107,3108 7079,3063 7047,3018 7012,2975 6974,2932 6933,2892 6890,2853 6844,2815 6795,2779 6744,2745 6691,2713 6636,2683 6578,2655 6519,2630 6458,2606 6395,2584 6331,2565 6266,2549 6200,2534 6132,2523 6064,2513 5996,2506 5927,2502 5858,2500 5848,3152 5872,3153 5896,3154 5919,3157 5943,3160 5966,3164 5989,3169 6012,3175 6034,3181 6056,3189 6077,3197 6098,3206 6118,3216 6137,3226 6156,3237 6173,3249 6190,3262 6206,3275 6221,3288 6236,3302 6249,3317 6261,3332 6272,3348 6282,3364 6291,3380 6298,3397 6305,3413 6310,3430 6315,3448 6318,3465 6319,3483 6320,3500 6319,3517 6318,3535 6315,3552 6310,3570 6305,3587 6298,3603 6291,3620 6282,3636 6272,3652 6261,3668 6249,3683 6236,3698 6221,3712 6206,3725 6190,3738 6173,3751 6156,3763 6137,3774 6118,3784 6098,3794 6077,3803 6056,3811 6034,3819 6012,3825 5989,3831 5966,3836 5943,3840 5919,3843 5896,3846 5872,3847 5848,3848 5858,4500 Z"/>
   </g>
  </g>
  <g class="com.sun.star.drawing.CustomShape">
   <g id="id17">
    <rect class="BoundingBox" stroke="none" fill="none" x="2349" y="1499" width="753" height="3003"/>
    <path fill="rgb(42,96,153)" stroke="none" d="M 2350,3000 L 2350,1500 3100,1500 3100,4500 2350,4500 2350,3000 Z"/>
    <path fill="none" stroke="rgb(255,255,255)" d="M 2350,3000 L 2350,1500 3100,1500 3100,4500 2350,4500 2350,3000 Z"/>
   </g>
  </g>
  <g class="com.sun.star.drawing.CustomShape">
   <g id="id18">
    <rect class="BoundingBox" stroke="none" fill="none" x="3174" y="1499" width="1578" height="3003"/>
    <path fill="rgb(42,96,153)" stroke="none" d="M 3175,4500 L 3254,4498 3332,4493 3410,4483 3487,4470 3564,4454 3639,4433 3714,4410 3787,4382 3858,4351 3928,4317 3996,4280 4062,4239 4126,4196 4187,4149 4246,4100 4302,4047 4356,3993 4406,3935 4454,3876 4498,3814 4539,3750 4577,3684 4611,3617 4641,3548 4668,3478 4691,3406 4711,3334 4726,3260 4738,3187 4746,3112 4750,3037 4750,2963 4746,2888 4738,2813 4726,2740 4711,2666 4691,2594 4668,2522 4641,2452 4611,2383 4577,2316 4539,2250 4498,2186 4454,2124 4406,2065 4356,2007 4302,1953 4246,1900 4187,1851 4126,1804 4062,1761 3996,1720 3928,1683 3858,1649 3787,1618 3714,1590 3639,1567 3564,1546 3487,1530 3410,1517 3332,1507 3254,1502 3175,1500 3175,2250 3214,2251 3253,2254 3292,2258 3331,2265 3369,2273 3407,2283 3445,2295 3481,2309 3517,2324 3552,2341 3586,2360 3619,2380 3651,2402 3682,2425 3711,2450 3739,2476 3766,2504 3791,2532 3815,2562 3837,2593 3857,2625 3876,2658 3893,2692 3909,2726 3922,2761 3934,2797 3943,2833 3951,2870 3957,2907 3961,2944 3963,2981 3963,3019 3961,3056 3957,3093 3951,3130 3943,3167 3934,3203 3922,3239 3909,3274 3893,3308 3876,3342 3857,3375 3837,3407 3815,3438 3791,3468 3766,3496 3739,3524 3711,3550 3682,3575 3651,3598 3619,3620 3586,3640 3552,3659 3517,3676 3481,3691 3445,3705 3407,3717 3369,3727 3331,3735 3292,3742 3253,3746 3214,3749 3175,3750 3175,4500 Z"/>
    <path fill="none" stroke="rgb(255,255,255)" d="M 3175,4500 L 3254,4498 3332,4493 3410,4483 3487,4470 3564,4454 3639,4433 3714,4410 3787,4382 3858,4351 3928,4317 3996,4280 4062,4239 4126,4196 4187,4149 4246,4100 4302,4047 4356,3993 4406,3935 4454,3876 4498,3814 4539,3750 4577,3684 4611,3617 4641,3548 4668,3478 4691,3406 4711,3334 4726,3260 4738,3187 4746,3112 4750,3037 4750,2963 4746,2888 4738,2813 4726,2740 4711,2666 4691,2594 4668,2522 4641,2452 4611,2383 4577,2316 4539,2250 4498,2186 4454,2124 4406,2065 4356,2007 4302,1953 4246,1900 4187,1851 4126,1804 4062,1761 3996,1720 3928,1683 3858,1649 3787,1618 3714,1590 3639,1567 3564,1546 3487,1530 3410,1517 3332,1507 3254,1502 3175,1500 3175,2250 3214,2251 3253,2254 3292,2258 3331,2265 3369,2273 3407,2283 3445,2295 3481,2309 3517,2324 3552,2341 3586,2360 3619,2380 3651,2402 3682,2425 3711,2450 3739,2476 3766,2504 3791,2532 3815,2562 3837,2593 3857,2625 3876,2658 3893,2692 3909,2726 3922,2761 3934,2797 3943,2833 3951,2870 3957,2907 3961,2944 3963,2981 3963,3019 3961,3056 3957,3093 3951,3130 3943,3167 3934,3203 3922,3239 3909,3274 3893,3308 3876,3342 3857,3375 3837,3407 3815,3438 3791,3468 3766,3496 3739,3524 3711,3550 3682,3575 3651,3598 3619,3620 3586,3640 3552,3659 3517,3676 3481,3691 3445,3705 3407,3717 3369,3727 3331,3735 3292,3742 3253,3746 3214,3749 3175,3750 3175,4500 Z"/>
   </g>
  </g>
  <g class="com.sun.star.drawing.CustomShape">
   <g id="id19">
    <rect class="BoundingBox" stroke="none" fill="none" x="7362" y="1510" width="2044" height="2985"/>
    <path fill="rgb(42,96,153)" stroke="none" d="M 9384,1840 L 9334,1794 9282,1753 9230,1713 9174,1677 9118,1644 9061,1616 9002,1589 8942,1568 8882,1549 8821,1534 8760,1523 8698,1515 8635,1512 8573,1511 8511,1515 8449,1522 8387,1534 8326,1548 8265,1567 8205,1590 8148,1615 8090,1644 8034,1676 7979,1713 7926,1751 7875,1793 7826,1839 7778,1887 7732,1938 7689,1992 7648,2047 7610,2107 7574,2167 7540,2230 7510,2296 7481,2362 7457,2430 7434,2500 7415,2571 7399,2643 7385,2716 7375,2790 7368,2864 7364,2938 7363,3013 7366,3088 7370,3162 7379,3236 7391,3310 7405,3383 7423,3455 7444,3524 7467,3594 7493,3662 7522,3728 7554,3792 7589,3855 7626,3915 7666,3973 7707,4028 7752,4082 7798,4131 7846,4179 7897,4223 7948,4265 8003,4302 8058,4338 8114,4369 8172,4397 8231,4421 8291,4443 8352,4460 8413,4474 8475,4484 8537,4491 8599,4493 8661,4492 8724,4487 8786,4478 8847,4466 8908,4449 8968,4430 9028,4407 9085,4380 9142,4350 9198,4317 9252,4279 9304,4239 9356,4196 9404,4150 8911,3440 8892,3458 8873,3475 8852,3490 8832,3504 8811,3517 8789,3528 8767,3539 8744,3548 8721,3555 8698,3561 8675,3566 8651,3570 8627,3572 8603,3572 8580,3571 8556,3568 8532,3565 8509,3560 8486,3553 8463,3545 8440,3536 8418,3525 8397,3513 8375,3499 8355,3485 8335,3469 8316,3452 8297,3434 8280,3415 8262,3394 8246,3373 8231,3351 8217,3328 8204,3305 8191,3280 8181,3255 8171,3229 8162,3202 8154,3175 8147,3147 8142,3120 8137,3091 8134,3063 8132,3035 8131,3006 8132,2977 8133,2949 8135,2921 8140,2892 8145,2865 8151,2837 8158,2810 8167,2783 8177,2757 8187,2732 8198,2707 8211,2683 8225,2659 8240,2637 8256,2616 8272,2595 8289,2576 8308,2558 8327,2539 8347,2523 8367,2509 8387,2495 8408,2483 8430,2472 8453,2461 8476,2453 8499,2446 8522,2441 8546,2437 8570,2433 8593,2432 8617,2432 8641,2434 8665,2436 8688,2441 8711,2447 8734,2454 8757,2463 8779,2472 8801,2483 8824,2496 8844,2510 8865,2525 8884,2541 8903,2558 9384,1840 Z"/>
    <path fill="none" stroke="rgb(255,255,255)" d="M 9384,1840 L 9334,1794 9282,1753 9230,1713 9174,1677 9118,1644 9061,1616 9002,1589 8942,1568 8882,1549 8821,1534 8760,1523 8698,1515 8635,1512 8573,1511 8511,1515 8449,1522 8387,1534 8326,1548 8265,1567 8205,1590 8148,1615 8090,1644 8034,1676 7979,1713 7926,1751 7875,1793 7826,1839 7778,1887 7732,1938 7689,1992 7648,2047 7610,2107 7574,2167 7540,2230 7510,2296 7481,2362 7457,2430 7434,2500 7415,2571 7399,2643 7385,2716 7375,2790 7368,2864 7364,2938 7363,3013 7366,3088 7370,3162 7379,3236 7391,3310 7405,3383 7423,3455 7444,3524 7467,3594 7493,3662 7522,3728 7554,3792 7589,3855 7626,3915 7666,3973 7707,4028 7752,4082 7798,4131 7846,4179 7897,4223 7948,4265 8003,4302 8058,4338 8114,4369 8172,4397 8231,4421 8291,4443 8352,4460 8413,4474 8475,4484 8537,4491 8599,4493 8661,4492 8724,4487 8786,4478 8847,4466 8908,4449 8968,4430 9028,4407 9085,4380 9142,4350 9198,4317 9252,4279 9304,4239 9356,4196 9404,4150 8911,3440 8892,3458 8873,3475 8852,3490 8832,3504 8811,3517 8789,3528 8767,3539 8744,3548 8721,3555 8698,3561 8675,3566 8651,3570 8627,3572 8603,3572 8580,3571 8556,3568 8532,3565 8509,3560 8486,3553 8463,3545 8440,3536 8418,3525 8397,3513 8375,3499 8355,3485 8335,3469 8316,3452 8297,3434 8280,3415 8262,3394 8246,3373 8231,3351 8217,3328 8204,3305 8191,3280 8181,3255 8171,3229 8162,3202 8154,3175 8147,3147 8142,3120 8137,3091 8134,3063 8132,3035 8131,3006 8132,2977 8133,2949 8135,2921 8140,2892 8145,2865 8151,2837 8158,2810 8167,2783 8177,2757 8187,2732 8198,2707 8211,2683 8225,2659 8240,2637 8256,2616 8272,2595 8289,2576 8308,2558 8327,2539 8347,2523 8367,2509 8387,2495 8408,2483 8430,2472 8453,2461 8476,2453 8499,2446 8522,2441 8546,2437 8570,2433 8593,2432 8617,2432 8641,2434 8665,2436 8688,2441 8711,2447 8734,2454 8757,2463 8779,2472 8801,2483 8824,2496 8844,2510 8865,2525 8884,2541 8903,2558 9384,1840 Z"/>
   </g>
  </g>
  <g class="com.sun.star.drawing.CustomShape">
   <g id="id20">
    <rect class="BoundingBox" stroke="none" fill="none" x="8447" y="8610" width="2108" height="1608"/>
    <g>
     <defs>
      <linearGradient id="gradient7" x1="8925" y1="8417" x2="10076" y2="10410" gradientUnits="userSpaceOnUse">
       <stop offset="0" style="stop-color:rgb(255,255,166)"/>
       <stop offset="1" style="stop-color:rgb(255,128,0)"/>
      </linearGradient>
     </defs>
     <path style="fill:url(#gradient7)" d="M 8750,8663 L 8750,8663 8734,8664 8717,8665 8701,8668 8685,8672 8670,8676 8654,8682 8640,8689 8625,8697 8611,8705 8598,8715 8585,8725 8573,8736 8562,8748 8552,8761 8542,8774 8534,8788 8526,8803 8519,8817 8513,8833 8509,8848 8505,8864 8502,8880 8501,8897 8500,8913 8500,9913 8500,9914 8501,9930 8502,9947 8505,9963 8509,9979 8513,9994 8519,10010 8526,10024 8534,10039 8542,10053 8552,10066 8562,10079 8573,10091 8585,10102 8598,10112 8611,10122 8625,10130 8640,10138 8654,10145 8670,10151 8685,10155 8701,10159 8717,10162 8734,10163 8750,10164 10250,10164 10251,10164 10267,10163 10284,10162 10300,10159 10316,10155 10331,10151 10347,10145 10361,10138 10376,10130 10390,10122 10403,10112 10416,10102 10428,10091 10439,10079 10449,10066 10459,10053 10467,10039 10475,10024 10482,10010 10488,9994 10492,9979 10496,9963 10499,9947 10500,9930 10501,9914 10501,8913 10501,8913 10501,8913 10500,8897 10499,8880 10496,8864 10492,8848 10488,8833 10482,8817 10475,8803 10467,8788 10459,8774 10449,8761 10439,8748 10428,8736 10416,8725 10403,8715 10390,8705 10376,8697 10361,8689 10347,8682 10331,8676 10316,8672 10300,8668 10284,8665 10267,8664 10251,8663 8750,8663 Z"/>
    </g>
    <path fill="none" stroke="rgb(42,96,153)" stroke-width="106" stroke-linejoin="round" d="M 8750,8663 L 8750,8663 C 8706,8663 8663,8675 8625,8697 8587,8718 8555,8750 8534,8788 8512,8826 8500,8869 8500,8913 L 8500,9913 8500,9914 C 8500,9958 8512,10001 8534,10039 8555,10077 8587,10109 8625,10130 8663,10152 8706,10164 8750,10164 L 10250,10164 10251,10164 C 10295,10164 10338,10152 10376,10130 10414,10109 10446,10077 10467,10039 10489,10001 10501,9958 10501,9914 L 10501,8913 10501,8913 10501,8913 C 10501,8869 10489,8826 10467,8788 10446,8750 10414,8718 10376,8697 10338,8675 10295,8663 10251,8663 L 8750,8663 Z"/>
   </g>
  </g>
  <g class="com.sun.star.drawing.ClosedBezierShape">
   <g id="id21">
    <rect class="BoundingBox" stroke="none" fill="none" x="6965" y="7551" width="1501" height="2001"/>
    <path fill="rgb(102,102,102)" stroke="none" d="M 8465,9051 L 7715,9051 C 7510,9051 7453,8976 7465,8801 L 7465,7551 6965,7551 6965,9051 C 6965,9301 6978,9505 7465,9551 L 8465,9551 8465,9051 Z"/>
   </g>
  </g>
 </g>
</svg>