<?xml version="1.0" encoding="UTF-8"?>
<!DOCTYPE svg PUBLIC "-//W3C//DTD SVG 1.1//EN" "http://www.w3.org/Graphics/SVG/1.1/DTD/svg11.dtd">
<svg version="1.2" width="100.01mm" height="100.01mm" viewBox="1000 1000 10001 10001" preserveAspectRatio="xMidYMid" fill-rule="evenodd" stroke-width="28.222" stroke-linejoin="round" xmlns="http://www.w3.org/2000/svg" xmlns:ooo="http://xml.openoffice.org/svg/export" xmlns:xlink="http://www.w3.org/1999/xlink" xmlns:presentation="http://sun.com/xmlns/staroffice/presentation" xmlns:smil="http://www.w3.org/2001/SMIL20/" xmlns:anim="urn:oasis:names:tc:opendocument:xmlns:animation:1.0" xml:space="preserve">
 <defs class="EmbeddedBulletChars">
  <g id="bullet-char-template-57356" transform="scale(0.00048828125,-0.00048828125)">
   <path d="M 580,1141 L 1163,571 580,0 -4,571 580,1141 Z"/>
  </g>
  <g id="bullet-char-template-57354" transform="scale(0.00048828125,-0.00048828125)">
   <path d="M 8,1128 L 1137,1128 1137,0 8,0 8,1128 Z"/>
  </g>
  <g id="bullet-char-template-10146" transform="scale(0.00048828125,-0.00048828125)">
   <path d="M 174,0 L 602,739 174,1481 1456,739 174,0 Z M 1358,739 L 309,1346 659,739 1358,739 Z"/>
  </g>
  <g id="bullet-char-template-10132" transform="scale(0.00048828125,-0.00048828125)">
   <path d="M 2015,739 L 1276,0 717,0 1260,543 174,543 174,936 1260,936 717,1481 1274,1481 2015,739 Z"/>
  </g>
  <g id="bullet-char-template-10007" transform="scale(0.00048828125,-0.00048828125)">
   <path d="M 0,-2 C -7,14 -16,27 -25,37 L 356,567 C 262,823 215,952 215,954 215,979 228,992 255,992 264,992 276,990 289,987 310,991 331,999 354,1012 L 381,999 492,748 772,1049 836,1024 860,1049 C 881,1039 901,1025 922,1006 886,937 835,863 770,784 769,783 710,716 594,584 L 774,223 C 774,196 753,168 711,139 L 727,119 C 717,90 699,76 672,76 641,76 570,178 457,381 L 164,-76 C 142,-110 111,-127 72,-127 30,-127 9,-110 8,-76 1,-67 -2,-52 -2,-32 -2,-23 -1,-13 0,-2 Z"/>
  </g>
  <g id="bullet-char-template-10004" transform="scale(0.00048828125,-0.00048828125)">
   <path d="M 285,-33 C 182,-33 111,30 74,156 52,228 41,333 41,471 41,549 55,616 82,672 116,743 169,778 240,778 293,778 328,747 346,684 L 369,508 C 377,444 397,411 428,410 L 1163,1116 C 1174,1127 1196,1133 1229,1133 1271,1133 1292,1118 1292,1087 L 1292,965 C 1292,929 1282,901 1262,881 L 442,47 C 390,-6 338,-33 285,-33 Z"/>
  </g>
  <g id="bullet-char-template-9679" transform="scale(0.00048828125,-0.00048828125)">
   <path d="M 813,0 C 632,0 489,54 383,161 276,268 223,411 223,592 223,773 276,916 383,1023 489,1130 632,1184 813,1184 992,1184 1136,1130 1245,1023 1353,916 1407,772 1407,592 1407,412 1353,268 1245,161 1136,54 992,0 813,0 Z"/>
  </g>
  <g id="bullet-char-template-8226" transform="scale(0.00048828125,-0.00048828125)">
   <path d="M 346,457 C 273,457 209,483 155,535 101,586 74,649 74,723 74,796 101,859 155,911 209,963 273,989 346,989 419,989 480,963 531,910 582,859 608,796 608,723 608,648 583,586 532,535 482,483 420,457 346,457 Z"/>
  </g>
  <g id="bullet-char-template-8211" transform="scale(0.00048828125,-0.00048828125)">
   <path d="M -4,459 L 1135,459 1135,606 -4,606 -4,459 Z"/>
  </g>
  <g id="bullet-char-template-61548" transform="scale(0.00048828125,-0.00048828125)">
   <path d="M 173,740 C 173,903 231,1043 346,1159 462,1274 601,1332 765,1332 928,1332 1067,1274 1183,1159 1299,1043 1357,903 1357,740 1357,577 1299,437 1183,322 1067,206 928,148 765,148 601,148 462,206 346,322 231,437 173,577 173,740 Z"/>
  </g>
 </defs>
 <g class="Page">
  <g class="Group">
   <g class="com.sun.star.drawing.CustomShape">
    <g id="id3">
     <rect class="BoundingBox" stroke="none" fill="none" x="1000" y="1000" width="10001" height="10001"/>
    </g>
   </g>
   <g class="com.sun.star.drawing.PolyPolygonShape">
    <g id="id4">
     <rect class="BoundingBox" stroke="none" fill="none" x="3899" y="6749" width="2003" height="1503"/>
     <path fill="rgb(0,0,0)" stroke="none" d="M 5400,8250 L 5400,7500 5399,7463 5396,7430 5392,7400 5386,7373 5377,7349 5367,7328 5355,7309 5341,7294 5324,7280 5306,7270 5286,7261 5263,7255 5238,7251 5211,7249 5182,7249 5150,7250 3900,7250 3900,6750 5400,6750 5491,6752 5535,6754 5577,6760 5617,6768 5656,6780 5692,6796 5726,6817 5758,6844 5787,6878 5814,6918 5838,6966 5858,7023 5876,7089 5890,7164 5900,7250 5900,8250 5400,8250 Z"/>
     <path fill="none" stroke="rgb(255,255,255)" d="M 5400,8250 L 5400,7500 5399,7463 5396,7430 5392,7400 5386,7373 5377,7349 5367,7328 5355,7309 5341,7294 5324,7280 5306,7270 5286,7261 5263,7255 5238,7251 5211,7249 5182,7249 5150,7250 3900,7250 3900,6750 5400,6750 5491,6752 5535,6754 5577,6760 5617,6768 5656,6780 5692,6796 5726,6817 5758,6844 5787,6878 5814,6918 5838,6966 5858,7023 5876,7089 5890,7164 5900,7250 5900,8250 5400,8250 Z"/>
    </g>
   </g>
   <g class="com.sun.star.drawing.CustomShape">
    <g id="id5">
     <rect class="BoundingBox" stroke="none" fill="none" x="2499" y="3749" width="503" height="1253"/>
     <path fill="rgb(0,0,0)" stroke="none" d="M 2750,5000 L 2500,5000 2500,3750 3000,3750 3000,5000 2750,5000 Z"/>
     <path fill="none" stroke="rgb(255,255,255)" d="M 2750,5000 L 2500,5000 2500,3750 3000,3750 3000,5000 2750,5000 Z"/>
    </g>
   </g>
   <g class="com.sun.star.drawing.ClosedBezierShape">
    <g id="id6">
     <rect class="BoundingBox" stroke="none" fill="none" x="8150" y="2979" width="2001" height="1772"/>
     <path fill="rgb(128,128,128)" stroke="none" d="M 8150,3500 L 9400,3479 C 9605,3479 9662,3554 9650,3729 L 9650,4750 10150,4750 10150,3479 C 10150,3229 10137,3025 9650,2979 L 8150,3000 8150,3500 Z"/>
    </g>
   </g>
   <g class="com.sun.star.drawing.ClosedBezierShape">
    <g id="id7">
     <rect class="BoundingBox" stroke="none" fill="none" x="6899" y="6250" width="1502" height="2001"/>
     <path fill="rgb(102,102,102)" stroke="none" d="M 8400,7750 L 7650,7750 C 7445,7750 7388,7675 7400,7500 L 7400,6250 6900,6250 6900,7750 C 6900,8000 6913,8204 7400,8250 L 8400,8250 8400,7750 Z"/>
    </g>
   </g>
   <g class="com.sun.star.drawing.PolyPolygonShape">
    <g id="id8">
     <rect class="BoundingBox" stroke="none" fill="none" x="4649" y="2999" width="1503" height="2753"/>
     <path fill="rgb(0,0,0)" stroke="none" d="M 6150,3500 L 5400,3500 5363,3501 5330,3504 5300,3508 5273,3514 5249,3523 5228,3533 5209,3545 5194,3559 5180,3576 5170,3594 5161,3614 5155,3637 5151,3662 5149,3689 5149,3718 5150,3750 5150,5750 4650,5750 4650,3500 4652,3409 4654,3365 4660,3323 4668,3283 4680,3244 4696,3208 4717,3173 4744,3142 4778,3112 4818,3086 4866,3062 4923,3042 4989,3024 5064,3010 5150,3000 6150,3000 6150,3500 Z"/>
     <path fill="none" stroke="rgb(255,255,255)" d="M 6150,3500 L 5400,3500 5363,3501 5330,3504 5300,3508 5273,3514 5249,3523 5228,3533 5209,3545 5194,3559 5180,3576 5170,3594 5161,3614 5155,3637 5151,3662 5149,3689 5149,3718 5150,3750 5150,5750 4650,5750 4650,3500 4652,3409 4654,3365 4660,3323 4668,3283 4680,3244 4696,3208 4717,3173 4744,3142 4778,3112 4818,3086 4866,3062 4923,3042 4989,3024 5064,3010 5150,3000 6150,3000 6150,3500 Z"/>
    </g>
   </g>
   <g class="com.sun.star.drawing.CustomShape">
    <g id="id9">
     <rect class="BoundingBox" stroke="none" fill="none" x="3649" y="5249" width="2503" height="503"/>
     <path fill="rgb(0,0,0)" stroke="none" d="M 4900,5750 L 3650,5750 3650,5250 6150,5250 6150,5750 4900,5750 Z"/>
     <path fill="none" stroke="rgb(255,255,255)" d="M 4900,5750 L 3650,5750 3650,5250 6150,5250 6150,5750 4900,5750 Z"/>
    </g>
   </g>
   <g class="Group">
    <g class="com.sun.star.drawing.ClosedBezierShape">
     <g id="id10">
      <rect class="BoundingBox" stroke="none" fill="none" x="1097" y="6622" width="3214" height="2182"/>
      <path fill="rgb(153,153,153)" stroke="none" d="M 1152,7358 L 1152,7358 C 1152,7238 1226,7121 1361,7017 1497,6913 1692,6826 1928,6766 2164,6706 2432,6675 2705,6675 L 2705,6675 C 2976,6675 3245,6707 3481,6766 3717,6827 3912,6913 4048,7017 4183,7121 4257,7238 4257,7358 L 4257,7358 4254,8067 4254,8067 C 4254,8187 4181,8304 4046,8408 3910,8512 3715,8599 3479,8659 3243,8719 2974,8750 2703,8750 L 2703,8750 C 2430,8750 2162,8719 1926,8659 1690,8599 1495,8512 1359,8408 1224,8304 1150,8187 1150,8067 L 1152,7358 Z"/>
      <path fill="none" stroke="rgb(42,96,153)" stroke-width="106" stroke-linejoin="round" d="M 1152,7358 L 1152,7358 C 1152,7238 1226,7121 1361,7017 1497,6913 1692,6826 1928,6766 2164,6706 2432,6675 2705,6675 L 2705,6675 C 2976,6675 3245,6707 3481,6766 3717,6827 3912,6913 4048,7017 4183,7121 4257,7238 4257,7358 L 4257,7358 4254,8067 4254,8067 C 4254,8187 4181,8304 4046,8408 3910,8512 3715,8599 3479,8659 3243,8719 2974,8750 2703,8750 L 2703,8750 C 2430,8750 2162,8719 1926,8659 1690,8599 1495,8512 1359,8408 1224,8304 1150,8187 1150,8067 L 1152,7358 Z"/>
     </g>
    </g>
    <g class="com.sun.star.drawing.ClosedBezierShape">
     <g id="id11">
      <rect class="BoundingBox" stroke="none" fill="none" x="1152" y="7357" width="3106" height="685"/>
      <path fill="rgb(153,153,153)" stroke="none" d="M 1152,7358 L 1152,7358 C 1152,7478 1224,7596 1360,7699 1496,7803 1692,7889 1928,7949 2164,8009 2432,8041 2704,8041 L 2704,8041 C 2977,8041 3244,8009 3480,7949 3716,7889 3912,7803 4049,7699 4185,7596 4257,7478 4257,7358 L 1152,7358 Z"/>
     </g>
    </g>
    <g class="com.sun.star.drawing.OpenBezierShape">
     <g id="id12">
      <rect class="BoundingBox" stroke="none" fill="none" x="1099" y="7304" width="3212" height="791"/>
      <path fill="none" stroke="rgb(42,96,153)" stroke-width="106" stroke-linejoin="round" d="M 1152,7358 L 1152,7358 C 1152,7478 1224,7596 1360,7699 1496,7803 1692,7889 1928,7949 2164,8009 2432,8041 2704,8041 L 2704,8041 C 2977,8041 3244,8009 3480,7949 3716,7889 3912,7803 4049,7699 4185,7596 4257,7478 4257,7358"/>
     </g>
    </g>
   </g>
   <g class="Group">
    <g class="com.sun.star.drawing.ClosedBezierShape">
     <g id="id13">
      <rect class="BoundingBox" stroke="none" fill="none" x="1099" y="5584" width="3214" height="2183"/>
      <path fill="rgb(178,178,178)" stroke="none" d="M 1154,6320 L 1154,6320 C 1154,6200 1228,6083 1363,5979 1498,5876 1694,5789 1930,5729 2165,5669 2434,5638 2707,5638 L 2707,5638 C 2978,5638 3247,5669 3483,5729 3719,5789 3914,5876 4049,5979 4185,6083 4258,6200 4258,6320 L 4258,6320 4256,7030 4256,7030 C 4256,7150 4183,7267 4047,7371 3912,7474 3717,7561 3481,7621 3245,7681 2976,7713 2705,7713 L 2705,7713 C 2432,7713 2163,7681 1928,7621 1692,7561 1496,7474 1361,7371 1225,7267 1152,7150 1152,7030 L 1154,6320 Z"/>
      <path fill="none" stroke="rgb(42,96,153)" stroke-width="106" stroke-linejoin="round" d="M 1154,6320 L 1154,6320 C 1154,6200 1228,6083 1363,5979 1498,5876 1694,5789 1930,5729 2165,5669 2434,5638 2707,5638 L 2707,5638 C 2978,5638 3247,5669 3483,5729 3719,5789 3914,5876 4049,5979 4185,6083 4258,6200 4258,6320 L 4258,6320 4256,7030 4256,7030 C 4256,7150 4183,7267 4047,7371 3912,7474 3717,7561 3481,7621 3245,7681 2976,7713 2705,7713 L 2705,7713 C 2432,7713 2163,7681 1928,7621 1692,7561 1496,7474 1361,7371 1225,7267 1152,7150 1152,7030 L 1154,6320 Z"/>
     </g>
    </g>
    <g class="com.sun.star.drawing.ClosedBezierShape">
     <g id="id14">
      <rect class="BoundingBox" stroke="none" fill="none" x="1154" y="6320" width="3106" height="685"/>
      <path fill="rgb(178,178,178)" stroke="none" d="M 1154,6320 L 1154,6320 C 1154,6440 1226,6558 1362,6662 1498,6766 1694,6852 1930,6912 2166,6972 2434,7003 2706,7003 L 2706,7003 C 2979,7003 3246,6972 3482,6912 3718,6852 3914,6766 4050,6662 4187,6558 4258,6440 4258,6320 L 1154,6320 Z"/>
     </g>
    </g>
    <g class="com.sun.star.drawing.OpenBezierShape">
     <g id="id15">
      <rect class="BoundingBox" stroke="none" fill="none" x="1101" y="6267" width="3212" height="791"/>
      <path fill="none" stroke="rgb(42,96,153)" stroke-width="106" stroke-linejoin="round" d="M 1154,6320 L 1154,6320 C 1154,6440 1226,6558 1362,6662 1498,6766 1694,6852 1930,6912 2166,6972 2434,7003 2706,7003 L 2706,7003 C 2979,7003 3246,6972 3482,6912 3718,6852 3914,6766 4050,6662 4187,6558 4258,6440 4258,6320"/>
     </g>
    </g>
   </g>
   <g class="Group">
    <g class="com.sun.star.drawing.ClosedBezierShape">
     <g id="id16">
      <rect class="BoundingBox" stroke="none" fill="none" x="1097" y="4547" width="3214" height="2182"/>
      <path fill="rgb(204,204,204)" stroke="none" d="M 1152,5283 L 1152,5283 C 1152,5163 1225,5046 1361,4942 1496,4838 1692,4751 1928,4691 2163,4631 2432,4600 2705,4600 L 2705,4600 C 2976,4600 3245,4632 3481,4691 3717,4752 3912,4838 4047,4942 4183,5046 4256,5163 4256,5283 L 4256,5283 4254,5992 4254,5992 C 4254,6112 4181,6229 4045,6333 3910,6437 3714,6524 3479,6584 3243,6644 2974,6675 2703,6675 L 2703,6675 C 2430,6675 2161,6644 1926,6584 1690,6524 1494,6437 1359,6333 1223,6229 1150,6112 1150,5992 L 1152,5283 Z"/>
      <path fill="none" stroke="rgb(42,96,153)" stroke-width="106" stroke-linejoin="round" d="M 1152,5283 L 1152,5283 C 1152,5163 1225,5046 1361,4942 1496,4838 1692,4751 1928,4691 2163,4631 2432,4600 2705,4600 L 2705,4600 C 2976,4600 3245,4632 3481,4691 3717,4752 3912,4838 4047,4942 4183,5046 4256,5163 4256,5283 L 4256,5283 4254,5992 4254,5992 C 4254,6112 4181,6229 4045,6333 3910,6437 3714,6524 3479,6584 3243,6644 2974,6675 2703,6675 L 2703,6675 C 2430,6675 2161,6644 1926,6584 1690,6524 1494,6437 1359,6333 1223,6229 1150,6112 1150,5992 L 1152,5283 Z"/>
     </g>
    </g>
    <g class="com.sun.star.drawing.ClosedBezierShape">
     <g id="id17">
      <rect class="BoundingBox" stroke="none" fill="none" x="1152" y="5282" width="3106" height="685"/>
      <path fill="rgb(204,204,204)" stroke="none" d="M 1152,5283 L 1152,5283 C 1152,5403 1224,5521 1360,5624 1496,5728 1692,5814 1928,5874 2164,5934 2432,5966 2704,5966 L 2704,5966 C 2977,5966 3244,5934 3480,5874 3716,5814 3912,5728 4048,5624 4185,5521 4256,5403 4256,5283 L 1152,5283 Z"/>
     </g>
    </g>
    <g class="com.sun.star.drawing.OpenBezierShape">
     <g id="id18">
      <rect class="BoundingBox" stroke="none" fill="none" x="1099" y="5229" width="3212" height="791"/>
      <path fill="none" stroke="rgb(42,96,153)" stroke-width="106" stroke-linejoin="round" d="M 1152,5283 L 1152,5283 C 1152,5403 1224,5521 1360,5624 1496,5728 1692,5814 1928,5874 2164,5934 2432,5966 2704,5966 L 2704,5966 C 2977,5966 3244,5934 3480,5874 3716,5814 3912,5728 4048,5624 4185,5521 4256,5403 4256,5283"/>
     </g>
    </g>
   </g>
   <g class="com.sun.star.drawing.CustomShape">
    <g id="id19">
     <rect class="BoundingBox" stroke="none" fill="none" x="6097" y="2447" width="2108" height="1608"/>
     <path fill="rgb(255,166,166)" stroke="none" d="M 6400,2500 L 6400,2500 C 6356,2500 6313,2512 6275,2534 6237,2555 6205,2587 6184,2625 6162,2663 6150,2706 6150,2750 L 6150,3750 6150,3751 C 6150,3795 6162,3838 6184,3876 6205,3914 6237,3946 6275,3967 6313,3989 6356,4001 6400,4001 L 7900,4001 7901,4001 C 7945,4001 7988,3989 8026,3967 8064,3946 8096,3914 8117,3876 8139,3838 8151,3795 8151,3751 L 8151,2750 8151,2750 8151,2750 C 8151,2706 8139,2663 8117,2625 8096,2587 8064,2555 8026,2534 7988,2512 7945,2500 7901,2500 L 6400,2500 Z"/>
     <path fill="none" stroke="rgb(42,96,153)" stroke-width="106" stroke-linejoin="round" d="M 6400,2500 L 6400,2500 C 6356,2500 6313,2512 6275,2534 6237,2555 6205,2587 6184,2625 6162,2663 6150,2706 6150,2750 L 6150,3750 6150,3751 C 6150,3795 6162,3838 6184,3876 6205,3914 6237,3946 6275,3967 6313,3989 6356,4001 6400,4001 L 7900,4001 7901,4001 C 7945,4001 7988,3989 8026,3967 8064,3946 8096,3914 8117,3876 8139,3838 8151,3795 8151,3751 L 8151,2750 8151,2750 8151,2750 C 8151,2706 8139,2663 8117,2625 8096,2587 8064,2555 8026,2534 7988,2512 7945,2500 7901,2500 L 6400,2500 Z"/>
    </g>
   </g>
   <g class="com.sun.star.drawing.CustomShape">
    <g id="id20">
     <rect class="BoundingBox" stroke="none" fill="none" x="6097" y="4697" width="2108" height="1608"/>
     <path fill="rgb(89,131,176)" stroke="none" d="M 6400,4750 L 6400,4750 C 6356,4750 6313,4762 6275,4784 6237,4805 6205,4837 6184,4875 6162,4913 6150,4956 6150,5000 L 6150,6000 6150,6001 C 6150,6045 6162,6088 6184,6126 6205,6164 6237,6196 6275,6217 6313,6239 6356,6251 6400,6251 L 7900,6251 7901,6251 C 7945,6251 7988,6239 8026,6217 8064,6196 8096,6164 8117,6126 8139,6088 8151,6045 8151,6001 L 8151,5000 8151,5000 8151,5000 C 8151,4956 8139,4913 8117,4875 8096,4837 8064,4805 8026,4784 7988,4762 7945,4750 7901,4750 L 6400,4750 Z"/>
     <path fill="none" stroke="rgb(42,96,153)" stroke-width="106" stroke-linejoin="round" d="M 6400,4750 L 6400,4750 C 6356,4750 6313,4762 6275,4784 6237,4805 6205,4837 6184,4875 6162,4913 6150,4956 6150,5000 L 6150,6000 6150,6001 C 6150,6045 6162,6088 6184,6126 6205,6164 6237,6196 6275,6217 6313,6239 6356,6251 6400,6251 L 7900,6251 7901,6251 C 7945,6251 7988,6239 8026,6217 8064,6196 8096,6164 8117,6126 8139,6088 8151,6045 8151,6001 L 8151,5000 8151,5000 8151,5000 C 8151,4956 8139,4913 8117,4875 8096,4837 8064,4805 8026,4784 7988,4762 7945,4750 7901,4750 L 6400,4750 Z"/>
    </g>
   </g>
   <g class="com.sun.star.drawing.CustomShape">
    <g id="id21">
     <rect class="BoundingBox" stroke="none" fill="none" x="8347" y="7197" width="2108" height="1608"/>
     <path fill="rgb(255,134,13)" stroke="none" d="M 8650,7250 L 8650,7250 C 8606,7250 8563,7262 8525,7284 8487,7305 8455,7337 8434,7375 8412,7413 8400,7456 8400,7500 L 8400,8500 8400,8501 C 8400,8545 8412,8588 8434,8626 8455,8664 8487,8696 8525,8717 8563,8739 8606,8751 8650,8751 L 10150,8751 10151,8751 C 10195,8751 10238,8739 10276,8717 10314,8696 10346,8664 10367,8626 10389,8588 10401,8545 10401,8501 L 10401,7500 10401,7500 10401,7500 C 10401,7456 10389,7413 10367,7375 10346,7337 10314,7305 10276,7284 10238,7262 10195,7250 10151,7250 L 8650,7250 Z"/>
     <path fill="none" stroke="rgb(42,96,153)" stroke-width="106" stroke-linejoin="round" d="M 8650,7250 L 8650,7250 C 8606,7250 8563,7262 8525,7284 8487,7305 8455,7337 8434,7375 8412,7413 8400,7456 8400,7500 L 8400,8500 8400,8501 C 8400,8545 8412,8588 8434,8626 8455,8664 8487,8696 8525,8717 8563,8739 8606,8751 8650,8751 L 10150,8751 10151,8751 C 10195,8751 10238,8739 10276,8717 10314,8696 10346,8664 10367,8626 10389,8588 10401,8545 10401,8501 L 10401,7500 10401,7500 10401,7500 C 10401,7456 10389,7413 10367,7375 10346,7337 10314,7305 10276,7284 10238,7262 10195,7250 10151,7250 L 8650,7250 Z"/>
    </g>
   </g>
   <g class="com.sun.star.drawing.CustomShape">
    <g id="id22">
     <rect class="BoundingBox" stroke="none" fill="none" x="8847" y="4697" width="2108" height="1608"/>
     <path fill="rgb(0,169,51)" stroke="none" d="M 9150,4750 L 9150,4750 C 9106,4750 9063,4762 9025,4784 8987,4805 8955,4837 8934,4875 8912,4913 8900,4956 8900,5000 L 8900,6000 8900,6001 C 8900,6045 8912,6088 8934,6126 8955,6164 8987,6196 9025,6217 9063,6239 9106,6251 9150,6251 L 10650,6251 10651,6251 C 10695,6251 10738,6239 10776,6217 10814,6196 10846,6164 10867,6126 10889,6088 10901,6045 10901,6001 L 10901,5000 10901,5000 10901,5000 C 10901,4956 10889,4913 10867,4875 10846,4837 10814,4805 10776,4784 10738,4762 10695,4750 10651,4750 L 9150,4750 Z"/>
     <path fill="none" stroke="rgb(42,96,153)" stroke-width="106" stroke-linejoin="round" d="M 9150,4750 L 9150,4750 C 9106,4750 9063,4762 9025,4784 8987,4805 8955,4837 8934,4875 8912,4913 8900,4956 8900,5000 L 8900,6000 8900,6001 C 8900,6045 8912,6088 8934,6126 8955,6164 8987,6196 9025,6217 9063,6239 9106,6251 9150,6251 L 10650,6251 10651,6251 C 10695,6251 10738,6239 10776,6217 10814,6196 10846,6164 10867,6126 10889,6088 10901,6045 10901,6001 L 10901,5000 10901,5000 10901,5000 C 10901,4956 10889,4913 10867,4875 10846,4837 10814,4805 10776,4784 10738,4762 10695,4750 10651,4750 L 9150,4750 Z"/>
    </g>
   </g>
   <g class="com.sun.star.drawing.CustomShape">
    <g id="id23">
     <rect class="BoundingBox" stroke="none" fill="none" x="1696" y="2197" width="2109" height="1608"/>
     <path fill="rgb(0,169,51)" stroke="none" d="M 2000,2250 L 2000,2250 C 1956,2250 1913,2262 1875,2284 1837,2305 1805,2337 1784,2375 1762,2413 1750,2456 1750,2500 L 1750,3500 1750,3501 C 1750,3545 1762,3588 1784,3626 1805,3664 1837,3696 1875,3717 1913,3739 1956,3751 2000,3751 L 3500,3751 3501,3751 C 3545,3751 3588,3739 3626,3717 3664,3696 3696,3664 3717,3626 3739,3588 3751,3545 3751,3501 L 3751,2500 3751,2500 3751,2500 C 3751,2456 3739,2413 3717,2375 3696,2337 3664,2305 3626,2284 3588,2262 3545,2250 3501,2250 L 2000,2250 Z"/>
     <path fill="none" stroke="rgb(42,96,153)" stroke-width="106" stroke-linejoin="round" d="M 2000,2250 L 2000,2250 C 1956,2250 1913,2262 1875,2284 1837,2305 1805,2337 1784,2375 1762,2413 1750,2456 1750,2500 L 1750,3500 1750,3501 C 1750,3545 1762,3588 1784,3626 1805,3664 1837,3696 1875,3717 1913,3739 1956,3751 2000,3751 L 3500,3751 3501,3751 C 3545,3751 3588,3739 3626,3717 3664,3696 3696,3664 3717,3626 3739,3588 3751,3545 3751,3501 L 3751,2500 3751,2500 3751,2500 C 3751,2456 3739,2413 3717,2375 3696,2337 3664,2305 3626,2284 3588,2262 3545,2250 3501,2250 L 2000,2250 Z"/>
    </g>
   </g>
   <g class="com.sun.star.drawing.CustomShape">
    <g id="id24">
     <rect class="BoundingBox" stroke="none" fill="none" x="4597" y="8197" width="2108" height="1608"/>
     <path fill="rgb(180,120,4)" stroke="none" d="M 4900,8250 L 4900,8250 C 4856,8250 4813,8262 4775,8284 4737,8305 4705,8337 4684,8375 4662,8413 4650,8456 4650,8500 L 4650,9500 4650,9501 C 4650,9545 4662,9588 4684,9626 4705,9664 4737,9696 4775,9717 4813,9739 4856,9751 4900,9751 L 6400,9751 6401,9751 C 6445,9751 6488,9739 6526,9717 6564,9696 6596,9664 6617,9626 6639,9588 6651,9545 6651,9501 L 6651,8500 6651,8500 6651,8500 C 6651,8456 6639,8413 6617,8375 6596,8337 6564,8305 6526,8284 6488,8262 6445,8250 6401,8250 L 4900,8250 Z"/>
     <path fill="none" stroke="rgb(42,96,153)" stroke-width="106" stroke-linejoin="round" d="M 4900,8250 L 4900,8250 C 4856,8250 4813,8262 4775,8284 4737,8305 4705,8337 4684,8375 4662,8413 4650,8456 4650,8500 L 4650,9500 4650,9501 C 4650,9545 4662,9588 4684,9626 4705,9664 4737,9696 4775,9717 4813,9739 4856,9751 4900,9751 L 6400,9751 6401,9751 C 6445,9751 6488,9739 6526,9717 6564,9696 6596,9664 6617,9626 6639,9588 6651,9545 6651,9501 L 6651,8500 6651,8500 6651,8500 C 6651,8456 6639,8413 6617,8375 6596,8337 6564,8305 6526,8284 6488,8262 6445,8250 6401,8250 L 4900,8250 Z"/>
    </g>
   </g>
  </g>
 </g>
</svg>